<svg width="176.39mm" height="176.39mm" version="1.1" viewBox="0 0 176.39 176.39" xmlns="http://www.w3.org/2000/svg">
 <defs>
  <clipPath id="clipPath4684">
   <path d="m0 500h500v-500h-500z"/>
  </clipPath>
  <clipPath id="clipPath4692">
   <path d="m1.8357 485.53h483.69v-478.64h-483.69z"/>
  </clipPath>
  <clipPath id="clipPath4708">
   <path d="m0 500h500v-500h-500z"/>
  </clipPath>
  <clipPath id="clipPath4716">
   <path d="m2.6894 412.23h436.65v-411.86h-436.65z"/>
  </clipPath>
  <clipPath id="clipPath4732">
   <path d="m8.0693 400.89h422.85v-401.16h-422.85z"/>
  </clipPath>
  <clipPath id="clipPath4752">
   <path d="m30.821 292.54h84.899v-60.623h-84.899z"/>
  </clipPath>
  <clipPath id="clipPath4768">
   <path d="m50.189 314.02h155.47v-163.91h-155.47z"/>
  </clipPath>
  <clipPath id="clipPath4784">
   <path d="m87.799 295.64h98.351v-132.65h-98.351z"/>
  </clipPath>
  <clipPath id="clipPath4804">
   <path d="m85.221 257.04h190.42v-256.95h-190.42z"/>
  </clipPath>
  <clipPath id="clipPath4828">
   <path d="m85.221 217.45h177.17v-217.36h-177.17z"/>
  </clipPath>
  <clipPath id="clipPath4864">
   <path d="m131.32 364.44h130.32v-112.15h-130.32z"/>
  </clipPath>
  <clipPath id="clipPath4912">
   <path d="m120.56 378.18h75.415v-82.738h-75.415z"/>
  </clipPath>
  <clipPath id="clipPath4928">
   <path d="m105.4 350.42h173.4v-55.477h-173.4z"/>
  </clipPath>
  <clipPath id="clipPath4948">
   <path d="m96.215 312.82h61.423v-16.954h-61.423z"/>
  </clipPath>
  <clipPath id="clipPath4968">
   <path d="m153.17 341.29h122v-85.06h-122z"/>
  </clipPath>
  <clipPath id="clipPath4988">
   <path d="m153.17 316.57h145.46v-60.342h-145.46z"/>
  </clipPath>
  <clipPath id="clipPath5016">
   <path d="m212.54 337h82.589v-63.555h-82.589z"/>
  </clipPath>
  <clipPath id="clipPath5044">
   <path d="m200.14 193.47h17.149v-42.81h-17.149z"/>
  </clipPath>
  <clipPath id="clipPath5084">
   <path d="m347.9 267.38h36.317v-94.781h-36.317z"/>
  </clipPath>
  <clipPath id="clipPath5168">
   <path d="m312.69 451.3h169.52v-344.16h-169.52z"/>
  </clipPath>
  <clipPath id="clipPath5236">
   <path d="m285.03 463.06h14.558v-29.116h-14.558z"/>
  </clipPath>
  <clipPath id="clipPath5252">
   <path d="m270.47 433.94h14.558v-29.116h-14.558z"/>
  </clipPath>
  <clipPath id="clipPath5268">
   <path d="m274.49 454.88h3.388v-6.777h-3.388z"/>
  </clipPath>
  <clipPath id="clipPath5284">
   <path d="m293.41 424.1h3.388v-6.776h-3.388z"/>
  </clipPath>
  <clipPath id="clipPath5308">
   <path d="m458.04 95.065h14.558v-29.116h-14.558z"/>
  </clipPath>
  <clipPath id="clipPath5324">
   <path d="m443.49 65.949h14.558v-29.116h-14.558z"/>
  </clipPath>
  <clipPath id="clipPath5340">
   <path d="m447.51 86.887h3.388v-6.7766h-3.388z"/>
  </clipPath>
  <clipPath id="clipPath5356">
   <path d="m466.42 56.106h3.389v-6.7767h-3.389z"/>
  </clipPath>
 </defs>
 <g transform="translate(-29.409 -34.054)">
  <g transform="matrix(.35278 0 0 -.35278 32.077 210.18)">
   <g transform="scale(.1)">
    <g transform="matrix(10 0 0 10 -75.634 -7.4484)">
     <path d="m0 0h500v500h-500z" fill="#160040"/>
     <g clip-path="url(#clipPath4684)">
      <g clip-path="url(#clipPath4692)" opacity=".3">
       <g transform="translate(11.36 402.56)">
        <path d="m0 0c-4.21-5.425-8.488-11.244-9.393-18.051s2.903-14.746 9.665-15.942c3.383-0.599 6.814 0.54 10.013 1.795 36.428 14.286 67.174 45.941 106.28 47.164 1.946 0.061 4.013 0.01 5.658-1.034 4.871-3.093 1.814-10.616-1.706-15.188-44.578-57.904-99.279-110.35-125.45-178.58-2.225-5.802-3.602-13.721 1.634-17.068 2.045-1.306 4.612-1.465 7.036-1.339 16.962 0.884 30.774 13.231 43.637 24.323 17.658 15.226 36.308 29.301 55.794 42.105 16.505 10.846 34.099 20.964 53.567 24.285-4.638-14.973-15.405-27.124-25.699-38.944-37.35-42.885-72.226-87.924-104.4-134.82-13.644-19.889-27.029-40.616-32.82-64.029-1.413-5.713-1.972-12.719 2.504-16.54 5.596-4.778 14.154-0.828 20.033 3.6 20.724 15.609 37.183 36.053 54.361 55.497 47.347 53.595 101.7 101 161.23 140.62 19.444 12.942 39.886 25.246 62.637 30.536 3.059 0.711 6.497 1.233 9.155-0.441 5.672-3.574 2.485-12.328-1.363-17.819-24.304-34.677-53.455-65.796-77.098-100.93-23.643-35.132-41.954-75.856-40.576-118.18 0.319-9.81 2.846-21.232 11.793-25.264 5.625-2.535 12.174-1.291 18.124 0.34 36.106 9.894 67.756 32.165 94.708 58.148 26.952 25.984 49.819 55.826 74.011 84.396 33.76 39.867 71.125 78.85 88.74 128.03 2.164 6.038 3.683 13.655-0.9 18.142-5.393 5.28-14.398 1.86-20.838-2.078-43.159-26.396-77.417-64.725-114.05-99.616-7.642-7.278-16.242-14.808-26.757-15.708 26.566 38.822 53.132 77.643 79.699 116.46 20.903 30.546 41.851 61.165 59.345 93.784 6.423 11.978 11.106 29.556-0.329 36.902-9.061 5.821-20.83-0.17-29.821-6.096-59.054-38.927-117.35-79.009-174.84-120.22-17.51-12.551-35.287-25.386-55.693-32.297-3.068-1.04-6.649-1.884-9.377-0.138-4.362 2.793-3.053 9.436-0.97 14.179 27.821 63.347 98.719 101.05 122 166.21 1.29 3.609 2.273 8.068-0.285 10.923-3.442 3.844-9.745 1.377-14.09-1.407-58.816-37.695-105.28-95.202-170.21-120.98 28.404 34.476 56.808 68.952 85.212 103.43 5.442 6.605 11.051 13.542 12.935 21.891 1.883 8.349-1.247 18.5-9.16 21.762-5.72 2.358-12.247 0.635-18.062-1.477-32.354-11.748-59.512-34.535-90.803-48.877-9.706-4.448-24.48-6.122-28.036 3.944-2.596 7.347 3.676 14.763 10.05 19.246 26.165 18.401 10.404 38.991-13.843 16.825-23.281-21.282-43.973-46.632-63.264-71.488" fill="#351289"/>
       </g>
      </g>
     </g>
     <g clip-path="url(#clipPath4708)">
      <g clip-path="url(#clipPath4716)" opacity=".26">
       <g transform="translate(332.39 .4255)">
        <path d="m0 0c-6.354 29.187-12.707 58.374-19.06 87.562-0.497 2.281-0.992 4.666-0.397 6.923 0.535 2.035 1.896 3.733 3.223 5.365 6.26 7.703 12.52 15.405 18.781 23.107 3.633 4.47 7.303 8.977 11.795 12.581 6.709 5.384 14.911 8.495 22.365 12.788 16.372 9.43 28.767 24.315 40.795 38.884 5.44 6.589 10.881 13.179 16.321 19.768 5.172 6.264 10.49 12.812 12.465 20.692s-0.444 17.491-7.641 21.259c-6.702 3.509-15.033 0.929-21.427-3.113-6.396-4.041-11.966-9.502-18.966-12.367-0.983-0.402-2.179-0.728-3.041-0.11-1.042 0.747-0.892 2.316-0.591 3.562 3.084 12.762 10.501 24.435 20.743 32.648 4.408 3.535 9.401 6.529 12.743 11.085 3.344 4.556 4.518 11.406 0.796 15.658-1.511 1.727-3.624 2.805-5.753 3.663-8.833 3.559-19.008 2.585-28.075-0.329 5.654 8.884 9.489 18.921 11.201 29.311 0.979 5.941 1.129 12.521-2.343 17.441-5.195 7.36-16.65 7.665-24.371 3.022-7.72-4.643-12.543-12.789-16.874-20.689-16.903-30.839-31.204-63.105-42.701-96.341-3.346-9.673-6.512-19.55-12.069-28.145-5.557-8.597-13.94-15.921-24.018-17.719-10.076-1.797-21.66 3.26-25.143 12.885-0.45 1.241-0.765 2.543-0.793 3.864-0.075 3.58 1.922 6.834 3.848 9.853 5.956 9.332 12.143 18.912 21.211 25.264 7.293 5.108 16.13 7.881 22.882 13.686 13.427 11.544 15.067 31.383 15.725 49.078 0.284 7.635 0.506 15.601-2.701 22.537-4.653 10.058-15.358 15.683-22.712 23.973-8.525 9.608-12.279 22.493-19.363 33.207-9.801 14.824-25.931 24.964-43.259 28.909s-35.722 1.961-52.43-4.093c-21.088-7.641-39.771-21.78-52.853-40-7.666-10.678-13.391-22.611-20.429-33.714-11.339-17.888-23.939-36.504-42.423-46.844-21.597-12.08-44.781-26.362-52.573-49.849-5.485-16.533-1.929-35.332 7.507-49.974 9.435-14.642 24.26-25.314 40.446-31.751-1.631-22.331 3.566-45.762 17.718-63.111 18.979-23.268 4.971-60.854 0.127-90.487z" fill="#f43b86"/>
       </g>
      </g>
      <g clip-path="url(#clipPath4732)" opacity=".26">
       <g transform="translate(324.4 -.2689)">
        <path d="m0 0c-6.491 33.02-10.585 68.779-17.077 101.8 12.346 20.666 29.871 38.211 50.524 50.579 7.383 4.422 15.159 8.196 22.277 13.032 18.22 12.382 31.122 30.972 43.596 49.129 2.61 3.797 5.261 7.683 6.517 12.115 1.256 4.433 0.892 9.591-2.081 13.111-4.676 5.535-13.686 4.817-19.965 1.202-6.278-3.616-11.022-9.401-17.006-13.487-2.77-1.892-6.687-3.345-9.28-1.216-1.74 1.429-2.114 3.925-2.122 6.176-0.042 10.83 5.451 20.985 12.317 29.36 6.867 8.376 15.18 15.457 22.264 23.65 0.95 1.099 1.922 2.321 2.03 3.77 0.206 2.787-2.747 4.697-5.402 5.571-7.757 2.551-16.545 1.792-23.75-2.053-2.613-1.394-6.696-2.72-7.801 0.028-0.389 0.967-0.125 2.06 0.144 3.068 2.328 8.745 4.656 17.49 6.984 26.235 1.816 6.826 3.625 14.127 1.388 20.826-4.624 3.837-11.862 2.79-16.71-0.757-4.85-3.548-7.869-9.004-10.739-14.283-14.928-27.47-29.944-55.14-39.504-84.907-4.525-14.091-7.906-28.817-15.759-41.36-7.855-12.543-21.567-22.767-36.307-21.453-7.235 0.644-13.928 3.948-20.425 7.194-7.238 3.616-15.747 8.594-20.041 15.451 10.324 2.038 17.752 10.991 23.295 19.937 5.544 8.946 10.416 18.81 18.967 24.945 10.313 7.4 25.352 8.935 31.891 19.814 2.747 4.569 3.427 10.051 3.936 15.358 0.882 9.21 1.425 18.454 1.627 27.704 0.073 3.372 0.06 6.92-1.579 9.867-2.563 4.608-8.182 6.34-12.552 9.29-8.082 5.455-11.891 15.159-16.438 23.785-11.498 21.812-31.294 40.029-55.283 45.729-20.47 4.865-42.524 0.28-60.803-10.142-18.278-10.421-33.001-26.321-44.399-44.006-10.141-15.736-18.05-33.253-31.417-46.36-12.349-12.108-28.411-19.514-43.043-28.735-14.631-9.221-28.764-21.535-33.189-38.255-3.889-14.692 0.58-30.748 9.387-43.136s21.546-21.488 34.984-28.591c0.692-10.454 3.057-20.41 5.822-30.516 1.679-6.14 3.741-12.195 6.556-17.903 2.731-5.539 6.15-10.708 9.122-16.122 16.077-29.293 18.103-62.908 5.356-93.796z" fill="#f43b86"/>
       </g>
      </g>
      <g transform="translate(72.886 158.79)">
       <path d="m0 0c-16.546 3.601-32.103 11.645-44.605 23.064-0.952 14.036 2.116 28.754 8.336 41.372-8.525-9.618-14.386-19.429-15.654-32.218-7.877 10.588-11.568 25.346-7.07 37.753 2.854 7.871 8.51 14.442 14.832 19.93 11.953 10.376 26.39 17.359 40.005 25.43 13.614 8.071 26.959 17.785 34.692 31.595 7.807 13.942 14.816 27.64 22.908 41.419 8.091 13.779 18.142 27.047 32.102 34.822 11.477 6.392 24.929 8.634 38.058 8.174 21.138-0.739 42.188-8.526 57.84-22.752 15.651-14.226 25.524-34.984 25.369-56.133-0.037-5.017-0.638-10.109-2.62-14.718-4.191-9.743-13.73-15.844-22.066-22.401-21.227-16.696-42.979-34.017-54.855-58.272-8.811-17.993-11.732-39.146-24.515-54.574-11.406-13.766-29.584-20.948-47.461-21.168-17.877-0.219-35.406 5.99-50.687 15.27-1.288 0.782-4.562 1.901-4.609 3.407" fill="#7267cb"/>
      </g>
      <g clip-path="url(#clipPath4752)" opacity=".25">
       <g transform="translate(63.193 253.18)">
        <path d="M 0,0 C 5.866,4.291 12.701,6.479 19.812,7.979 10.771,2.662 2.265,-6.386 -2.799,-15.569 5.753,-5.385 17.491,1.478 28.226,9.329 38.96,17.181 48.934,26.373 52.526,39.178 44.175,27.07 31.383,17.85 17.476,13.059 28.23,19.374 36.238,28.684 42.688,39.357 33.034,26.157 17.543,18.833 3.117,11.13 -11.31,3.427 -26.153,-6.14 -32.372,-21.266 -21.589,-5.575 -4.325,3.533 12.537,12.372 7.563,8.687 3.79,4.894 0,0" fill="#fff"/>
       </g>
      </g>
      <g clip-path="url(#clipPath4768)" opacity=".5">
       <g transform="translate(127.32 280.45)">
        <path d="m0 0c-9.068-9.874-20.95-16.625-32.596-23.268-11.645-6.643-23.479-13.517-32.363-23.557-8.884-10.041-14.465-23.969-11.264-36.988 2.178-8.857 8.191-16.423 15.456-21.937 7.266-5.514 15.755-9.172 24.308-12.342 13.324-4.939 27.076-8.835 41.142-10.861 13.287-1.914 26.991-2.128 39.99 1.227 3.885 1.002 7.813 2.391 10.75 5.123 3.406 3.169 5.074 7.757 6.327 12.237 5.175 18.505 5.247 38.121 10.172 56.695 2.829 10.671 7.291 21.317 6.258 32.308-0.778 8.278-4.632 15.934-8.844 23.103-4.825 8.212-10.316 16.206-17.657 22.274-6.56 5.422-21.613 14.195-29.016 6.6-8.862-9.093-14.059-21.246-22.663-30.614" fill="#7267cb"/>
       </g>
      </g>
      <g clip-path="url(#clipPath4784)" opacity=".5">
       <g transform="translate(125.45 260.35)">
        <path d="m0 0c-7.813-8.155-16.312-15.763-22.796-25.01-6.538-9.323-10.847-20.1-13.35-31.208-1.961-8.706-2.673-18.439 2.088-25.986 3.754-5.949 10.336-9.54 17.002-11.783 11.921-4.01 25.016-4.452 37.18-1.258 4.475 1.176 8.947 2.908 12.315 6.079 4.165 3.924 6.162 9.551 8.304 14.858 4.744 11.753 10.855 22.942 15.097 34.887 4.243 11.943 6.556 25.033 3.387 37.305-1.649 6.387-4.722 12.318-8.167 17.942-3.298 5.383-17.909 25.799-24.862 17.51-4.365-5.203-7.725-11.491-11.939-16.877-4.475-5.719-9.235-11.215-14.259-16.459" fill="#7267cb"/>
       </g>
      </g>
      <g transform="translate(87.852 .0856)">
       <path d="m0 0c11.376 25.245 10.665 54.999 1.126 80.994-1.347 3.671-2.872 7.319-3.464 11.184-1.35 8.801 2.234 17.508 5.351 25.848 11.533 30.853 18.414 63.403 18.512 96.341 4.659 3.24 10.595 3.206 16.256 2.819s11.152-2.022 16.605-3.59c2.487-0.716 5.46-1.325 7.423 0.361 0.721 0.62 1.191 1.476 1.635 2.316 6.628 12.578 10.676 26.508 11.819 40.679 6.671-9.764 13.909-18.146 22.963-25.75 9.055-7.604 20.163-13.198 31.962-13.958-6.415-5.31-11.432-11.885-13.747-19.885-0.365-1.26-0.672-2.575-0.494-3.875 0.178-1.299 0.937-2.592 2.16-3.066 18.111-7.013 37.19-12.994 54.607-21.586 6.511-3.212 12.967-6.648 18.652-11.162 18.05-14.33 15.76-37.582 21.452-59.914 8.185-32.114 13.074-64.963 17.948-97.743z" fill="#ffc59a"/>
      </g>
      <g clip-path="url(#clipPath4804)" opacity=".42">
       <g transform="translate(267.48 115.91)">
        <path d="m0 0c-10.617 23.299-32.149 41.657-38.521 66.084-7.708 2.833-15.437 5.582-22.998 8.51-1.223 0.473-1.982 1.766-2.16 3.066s0.13 2.614 0.494 3.875c2.315 8 7.332 14.574 13.748 19.885-11.8 0.76-22.908 6.353-31.963 13.958-9.054 7.603-16.292 15.986-22.963 25.749-1.143-14.17-5.191-28.101-11.82-40.678-0.443-0.841-0.913-1.696-1.634-2.316-1.963-1.687-4.936-1.077-7.423-0.362-5.453 1.569-10.944 3.204-16.605 3.591s-11.597 0.421-16.256-2.819c-0.098-32.939-6.979-65.488-18.512-96.341-3.117-8.341-6.701-17.048-5.351-25.848 0.592-3.866 2.117-7.513 3.464-11.184 9.539-25.995 10.25-55.749-1.126-80.994l170.6 0.01c6.396 17.417 12.425 35.025 15.369 53.319 3.376 20.974 2.463 43.162-6.347 62.495" fill="#f2ab88"/>
       </g>
      </g>
      <g transform="translate(204.29 197.44)">
       <path d="m0 0c2.315 8 7.332 14.574 13.748 19.885-11.8 0.76-22.908 6.353-31.963 13.958-9.054 7.603-16.292 15.986-22.963 25.749-1.066-13.217-4.661-26.225-10.519-38.12 13.41-13.752 32.044-22.401 51.197-23.922 0.075 0.826 0.269 1.649 0.5 2.45" fill="#f2ab88"/>
      </g>
      <g transform="translate(260.77 48.193)">
       <path d="m0 0c1.535 7.156 1.782 14.533 1.53 21.849-0.759 22.157-6.122 44.229-16.32 63.915-3.459 6.676-7.467 13.082-10.43 19.993-3.752 8.756-5.741 18.256-5.878 27.779-7.944 2.928-15.92 5.756-23.715 8.775-1.224 0.473-1.983 1.766-2.161 3.066s0.13 2.614 0.494 3.875c0.11 0.381 0.233 0.757 0.355 1.132-18.477 4.733-35.501 15.161-48.071 29.507-1.521-4.01-3.282-7.93-5.282-11.725-0.443-0.841-0.913-1.696-1.634-2.316-1.963-1.687-4.936-1.078-7.423-0.362-5.453 1.569-10.944 3.203-16.605 3.591-5.661 0.387-11.597 0.421-16.255-2.819-0.099-32.939-6.98-65.489-18.513-96.341-3.117-8.341-6.701-17.048-5.351-25.849 0.593-3.865 2.117-7.512 3.464-11.183 9.539-25.995 10.25-55.749-1.126-80.994l150.94 7e-3c3.952 7.038 7.763 14.156 11.422 21.35 4.359 8.569 8.543 17.35 10.561 26.75" fill="#fff"/>
      </g>
      <g clip-path="url(#clipPath4828)" opacity=".5">
       <g transform="translate(106.37 52.061)">
        <path d="m0 0c16.908-22.129 42.027-37.219 68.838-44.753 9.482-2.664 19.459-4.445 29.169-2.794 15.464 2.632 28.098 13.481 39.462 24.293 5.446 5.181 10.792 10.465 16.057 15.829 0.323 1.177 0.616 2.362 0.873 3.557 1.535 7.156 1.782 14.533 1.53 21.848-0.76 22.158-6.122 44.23-16.32 63.916-1.346 2.598-2.776 5.156-4.194 7.717-9.979-9.185-20.426-17.864-31.299-25.971-3.161-2.358-6.583-4.753-10.514-5.049-5.53-0.416-10.407 3.374-14.53 7.081-9.418 8.468-18.179 17.633-26.93 26.788-4.237 4.433-8.501 8.899-11.842 14.041-3.143 4.838-5.413 10.188-7.411 15.6-5.319 14.402-8.947 29.657-15.879 43.235-4.954 0.211-9.962-0.133-14.007-2.946-0.098-32.939-6.979-65.489-18.512-96.341-3.117-8.341-6.701-17.048-5.351-25.849 0.592-3.865 2.117-7.513 3.464-11.183 9.539-25.996 10.25-55.749-1.126-80.995l16.93 1e-3c2.432 17.161 3.081 34.464 1.592 51.975" fill="#ddd"/>
       </g>
      </g>
      <g transform="translate(257.83 272.19)">
       <path d="m0 0c-6.43-61.327-33.761-62.175-46.247-61.317-4.527 0.311-8.944 1.588-13.161 3.266-18.195 7.238-32.859 21.995-42 39.312-9.141 17.316-13.048 37.055-13.501 56.632-0.132 5.692 1.42 11.305 4.043 16.359 3.593 6.922 7.929 13.458 12.911 19.458 3.349 4.034 7.045 7.873 11.538 10.573 4.196 2.523 8.947 3.969 13.707 5.116 11.024 2.656 22.555 3.824 33.73 1.897 11.175-1.926 21.999-7.138 29.421-15.712 6.52-7.531 10.105-17.209 12.066-26.975 3.404-16.958-0.704-31.407-2.507-48.609" fill="#ffc59a"/>
      </g>
      <g transform="translate(216.1 246.8)">
       <path d="m0 0c0.078-1.819 0.174-3.713 1.045-5.313 0.917-1.686 2.582-2.831 4.28-3.726 1.233-0.649 2.557-1.212 3.95-1.247 2.857-0.071 5.285 2.054 7.053 4.3 1.767 2.245 3.28 4.817 5.708 6.325 0.524 0.326 1.096 0.606 1.491 1.08 0.708 0.846 0.664 2.14 0.15 3.116s-1.412 1.689-2.335 2.293c-2.941 1.927-6.336 3.03-9.718 3.989-3.155 0.894-6.994 1.524-9.333-0.774-2.941-2.887-2.45-6.31-2.291-10.043" fill="#f2ab88"/>
      </g>
      <g transform="translate(243.6 265.94)">
       <path d="m0 0c-3.643-1.951-8.213-2.062-11.947-0.291 1.19-1.684 2.489-3.291 3.885-4.809 0.299-0.324 0.631-0.661 1.064-0.747 0.412-0.081 0.829 0.083 1.214 0.25 2.607 1.13 5.371 2.923 5.796 5.732" fill="#f2ab88"/>
      </g>
      <g transform="translate(246.35 254.17)">
       <path d="M 0,0 C 0,-4.771 2.095,-9.043 5.401,-11.982 7.871,-4.681 9.872,4.282 11.175,15.286 4.696,13.225 0,7.163 0,0" fill="#ffa087"/>
      </g>
      <g transform="translate(207.15 270.21)">
       <path d="m0 0c0-8.86-7.183-16.043-16.043-16.043-8.861 0-16.043 7.183-16.043 16.043s7.182 16.043 16.043 16.043c8.86 0 16.043-7.183 16.043-16.043" fill="#ffa087"/>
      </g>
      <g clip-path="url(#clipPath4864)" opacity=".27">
       <g transform="translate(147.46 292.71)">
        <path d="m0 0c3.28-2.416 4.604-6.593 6.54-10.177 4.471-8.277 12.82-13.941 21.734-16.948s18.439-3.63 27.842-3.899c9.549-0.273 19.601-0.081 27.897 4.653 2.063 1.177 4.013 2.633 6.296 3.287 2.282 0.653 5.087 0.273 6.471-1.657 1.815-2.533 0.328-6.088 0.933-9.145 0.696-3.511 4.202-5.926 7.746-6.424 0.557-0.078 1.115-0.107 1.672-0.115 1.348 5.8 2.449 12.393 3.236 19.897 1.802 17.202 5.911 31.652 2.507 48.609-1.961 9.767-5.546 19.444-12.066 26.976-7.423 8.573-18.246 13.785-29.421 15.712-11.176 1.926-22.706 0.758-33.73-1.897-4.761-1.147-9.511-2.594-13.708-5.117-4.492-2.7-8.189-6.539-11.537-10.572-4.982-6.001-9.318-12.537-12.912-19.458-2.623-5.055-4.174-10.667-4.042-16.36 0.045-1.953 0.135-3.908 0.25-5.862-3.693 1.276-8.152-2e-3 -10.344-3.416-1.358-2.115-1.715-4.743-1.384-7.249 5.761 1.1 11.519 2.478 16.02-0.838" fill="#f2ab88"/>
       </g>
      </g>
      <g transform="translate(132.82 300.8)">
       <path d="m0 0c-1.552-2.418-1.796-5.506-1.2-8.317 0.597-2.811 1.963-5.396 3.45-7.855 1.241-2.05 2.624-4.09 4.587-5.462 1.964-1.373 4.636-1.961 6.79-0.913 1.956 0.95 3.12 3.027 3.752 5.108 0.664 2.185 0.876 4.506 0.617 6.776-0.399 3.498-1.946 9.694-4.651 12.273-3.851 3.671-10.505 2.813-13.345-1.61" fill="#ffc59a"/>
      </g>
      <g transform="translate(136.86 296.14)">
       <path d="m0 0c-0.797-1.242-0.922-2.827-0.616-4.27 0.306-1.442 1.008-2.77 1.771-4.032 0.637-1.052 1.346-2.099 2.355-2.804 1.008-0.705 2.379-1.006 3.486-0.469 1.004 0.488 1.601 1.554 1.925 2.622 0.341 1.122 0.45 2.314 0.317 3.479-0.205 1.796-0.999 4.976-2.388 6.3-1.976 1.884-5.392 1.445-6.85-0.826" fill="#f2ab88"/>
      </g>
      <g transform="translate(241.42 278.17)">
       <path d="m0 0c-1.111-1.309-1.553-3.047-1.862-4.736-0.364-1.991-0.52-4.261 0.766-5.823 0.867-1.053 2.331-1.577 3.669-1.312-1.228-2.902-3.935-5.133-7.019-5.783" fill="none" stroke="#56052a" stroke-linecap="round" stroke-linejoin="round" stroke-miterlimit="10"/>
      </g>
      <g transform="translate(236.94 250.62)">
       <path d="m0 0c-1.228 0.706-2.695 0.822-4.057 1.21-2.027 0.578-3.819 1.758-5.61 2.869s-3.671 2.189-5.753 2.519c-2.081 0.331-4.429-0.233-5.714-1.904-0.949-1.236-1.192-2.895-1.032-4.446 0.506-4.886 4.612-8.738 9.121-10.688 1.985-0.859 4.153-1.448 6.302-1.198 4.375 0.51 13.692 7.647 6.743 11.638" fill="#da6b58"/>
      </g>
      <g transform="translate(227.75 248.04)">
       <path d="m0 0c3.645-1.509 7.65-2.107 11.582-1.802 0.367 1.57-0.212 3.131-2.392 4.383-1.228 0.705-2.694 0.821-4.057 1.21-2.027 0.578-3.819 1.758-5.61 2.869s-3.671 2.188-5.752 2.519c-1.505 0.238-3.143 2e-3 -4.423-0.773 2.71-3.692 6.419-6.654 10.652-8.406" fill="#fff"/>
      </g>
      <g transform="translate(216.94 247.61)">
       <path d="m0 0c-0.415 0.036-0.838 0.05-1.26 0.035 1.54-3.347 4.758-5.968 8.219-7.465 1.935-0.837 4.043-1.411 6.138-1.209-0.532 0.896-1.102 1.767-1.754 2.578-2.759 3.435-6.955 5.676-11.343 6.061" fill="#ff8e8a"/>
      </g>
      <g transform="translate(156.81 295.72)">
       <path d="m0 0c-0.246 0.05-0.491 0.092-0.737 0.142 0.2-0.198 0.441-0.285 0.737-0.142" fill="#6aaa9e"/>
      </g>
      <g transform="translate(134.5 305.64)">
       <path d="m0 0c0.364 14.989 6.509 29.553 15.979 41.178s22.122 20.419 35.806 26.548c6.476 2.899 13.283 5.25 20.347 5.916 5.606 0.529 11.265-0.013 16.817-0.954 7.23-1.227 14.501-3.201 20.551-7.345 7.317-5.012 12.25-12.771 16.428-20.595 4.598-8.612 8.576-17.72 9.945-27.386 1.368-9.667-0.092-20.014-5.623-28.059-8.112 2.116-17.057 5.372-24.894 8.35 0.445 2.661 0.19 5.406-0.26 8.067-1.055 6.246-2.54 12.421-4.441 18.465 1.158-3.013 0.696-6.377 0.157-9.559-0.889-5.251-1.942-10.474-3.159-15.659-11.76 2.779-24.999 4.685-37.06 5.421 0.697 10.286 2.064 20.527 4.091 30.635-6.253-9.514-11.496-19.691-15.612-30.306-2.864-0.908-5.819 1.283-8.798 1.683-5.74 0.773-11.601 0.639-17.3-0.396-5.77-6.037-15.002-8.49-22.974-6.004" fill="#7267cb"/>
      </g>
      <g clip-path="url(#clipPath4912)" opacity=".25">
       <g transform="translate(177.24 378.18)">
        <path d="m0 0c-13.801-6.13-25.778-17.139-32.505-30.658 12.821 10.897 26.535 21.255 42.768 25.687-13.647-3.92-24.94-12.512-33.316-23.977 11.26 10.281 26.628 14.847 41.785 13.184-16.925-4.528-31.635-16.735-39.207-32.536 2.533 7.099 6.449 15.792 11.077 21.74-12.359-8.62-21.499-21.749-25.294-36.332-0.594 8.047 0.901 16.565 3.69 24.137-11.068-12.739-19.951-28.11-25.681-43.983 1.117 9.037 2.446 18.096 5.19 26.778s8.199 17.89 14.515 24.448c-7.63-5.175-13.824-12.444-17.723-20.799 3.862 15.156 13.224 28.846 25.947 37.941 9.44 6.749 17.701 10.836 28.754 14.37" fill="#fff"/>
       </g>
      </g>
      <g clip-path="url(#clipPath4928)" opacity=".5">
       <g transform="translate(135.36 314.26)">
        <path d="m0 0c-3e-3 -0.02-7e-3 -0.039-0.011-0.058 4e-3 0.019 8e-3 0.038 0.011 0.058m143.32 8.046c-0.726 5.135-2.194 10.11-4.095 14.939-15.716 2.996-39.742 6.682-55.458 9.679-12.634 2.408-25.601 4.823-38.275 2.634-12.675-2.189-24.036-9.841-28.101-22.044-4.714-0.378-31.112-2.966-39.583-3.988-2.557-4.722-5.133-9.462-7.764-14.221 9.788-0.743 19.65-0.481 29.385 0.779v1e-3c-0.149-1.478-0.255-2.961-0.291-4.45 7.972-2.486 17.204-0.033 22.974 6.004 5.699 1.035 11.56 1.169 17.301 0.396 2.978-0.4 5.933-2.591 8.797-1.683 4.117 10.615 9.359 20.792 15.612 30.306-2.027-10.108-3.394-20.349-4.091-30.635 12.061-0.735 25.3-2.642 37.06-5.421 1.217 5.185 2.27 10.408 3.159 15.659 0.459 2.708 0.852 5.547 0.248 8.19 1.7-5.608 3.06-11.318 4.036-17.096 0.45-2.661 0.705-5.406 0.26-8.067 7.837-2.978 16.782-6.234 24.895-8.35 5.53 8.045 15.299 17.702 13.931 27.368" fill="#7267cb"/>
       </g>
      </g>
      <g transform="translate(159.71 320.92)">
       <path d="m0 0c-18.517-1.346-36.75-4.14-55.004-7.523-3.209-5.767-5.277-11.039-8.487-16.806 20.472 3.572 40.234 3.289 60.595-0.867-0.917-0.441-1.351 1.184-1.447 2.197-0.806 8.466 2.829 14.632 4.343 22.999" fill="#6aaa9e"/>
      </g>
      <g clip-path="url(#clipPath4948)" opacity=".5">
       <g transform="translate(155.36 297.92)">
        <path d="m0 0c-0.526 5.529 0.842 10.079 2.276 14.899-18.792-3.646-37.89-5.609-56.974-7.397-1.388-2.902-2.761-5.799-4.449-8.832 20.224 3.529 39.757 3.288 59.858-0.725-0.42 0.415-0.646 1.369-0.711 2.055" fill="#6aaa9e"/>
       </g>
      </g>
      <g transform="translate(203.93 341.25)">
       <path d="m0 0c-8.752 0.262-17.603 0.253-26.139-1.693-2.517-0.574-5.028-1.328-7.238-2.664-1.756-1.061-3.282-2.466-4.688-3.961-7.487-7.96-11.767-18.696-12.57-29.594-0.25-3.4-0.17-6.872 0.805-10.139 2.494-8.356 10.324-13.954 18.208-17.682 13.304-6.291 28.198-7.971 42.914-8.094 10.242-0.086 14.897 10.293 22.253 8.573 0.659-0.155 1.302-0.37 1.919-0.645 3.023-1.346 5.888-3.724 6.517-6.972 0.399-2.056-0.122-4.316 0.824-6.184 5.367-2.748 10.701-4.704 16.632-5.786 5.943-1.085 11.726 2.975 17.568 4.515 5.637 1.486 11.523 3.106 15.778 7.09 0.691 0.646 1.344 1.374 1.666 2.263 0.401 1.108 0.24 2.33 0.074 3.497-0.498 3.519-1.015 7.101-2.551 10.306-1.419 2.96-3.64 5.451-5.887 7.845-13.741 14.635-29.861 27.39-48.432 35.015-12.633 5.188-26.167 6.923-37.653 14.31" fill="#6aaa9e"/>
      </g>
      <g clip-path="url(#clipPath4968)" opacity=".5">
       <g transform="translate(246.73 262.2)">
        <path d="m0 0c5.367-2.748 10.701-4.704 16.633-5.786 3.986-0.728 7.901 0.86 11.809 2.449-10.092 1.419-19.964 4.394-29.161 8.787 0.19-1.849-0.115-3.802 0.719-5.45" fill="#6aaa9e"/>
       </g>
       <g transform="translate(180.59 277.98)">
        <path d="m0 0c-7.146 3.012-13.671 8.017-17.29 14.875-3.656 6.932-4.029 15.507-0.988 22.729 1.154 2.744 2.76 5.271 4.404 7.753 2.066 3.117 4.234 6.216 7.021 8.709 4.591 4.107 10.538 6.298 16.329 8.398 0.778 0.282 1.556 0.564 2.334 0.847-4.921-0.166-9.818-0.637-14.614-1.73-2.517-0.574-5.028-1.328-7.238-2.664-1.756-1.062-3.281-2.466-4.687-3.961-7.487-7.96-11.768-18.696-12.57-29.594-0.25-3.4-0.171-6.872 0.804-10.139 2.494-8.356 10.325-13.954 18.208-17.682 13.304-6.291 28.199-7.971 42.914-8.094 3.97-0.033 7.098 1.506 9.872 3.303-7.098 0.105-14.385 0.696-21.799 1.457-7.714 0.792-15.554 2.781-22.7 5.793" fill="#6aaa9e"/>
       </g>
      </g>
      <g clip-path="url(#clipPath4988)" opacity=".5">
       <g transform="translate(295.9 284.08)">
        <path d="m0 0c-1.419 2.96-3.64 5.451-5.887 7.845-0.974 1.038-1.965 2.064-2.964 3.082-17.394 7.063-35.371 12.692-53.691 16.79-13.948 3.12-28.218 5.367-42.491 4.631-12.029-0.62-23.998-3.344-35.975-3.637-0.823-3.094-1.364-6.266-1.598-9.453-0.25-3.4-0.171-6.872 0.804-10.139 2.494-8.356 10.324-13.954 18.208-17.682 13.304-6.291 28.199-7.971 42.914-8.094 10.243-0.086 14.898 10.293 22.253 8.573 0.659-0.155 1.302-0.37 1.92-0.645 3.023-1.346 5.887-3.723 6.517-6.972 0.398-2.056-0.123-4.316 0.823-6.184 5.367-2.748 10.701-4.704 16.633-5.786 5.942-1.085 11.725 2.975 17.567 4.515 5.637 1.486 11.524 3.106 15.779 7.09 0.69 0.646 1.343 1.374 1.666 2.263 0.4 1.108 0.24 2.33 0.074 3.497-0.498 3.519-1.016 7.101-2.552 10.306" fill="#6aaa9e"/>
       </g>
      </g>
      <g transform="translate(215.75 340.14)">
       <path d="m0 0c-4.292 1.84-9.006 3.015-13.633 2.38s-9.14-3.325-11.096-7.566c-1.305-2.829-1.394-6.046-1.46-9.161-0.139-6.566-0.278-13.132-0.417-19.697-0.136-6.387 0.074-13.623 4.803-17.918 1.843-1.674 4.03-3.162 6.469-3.663 26.592-5.456 51.123-10.695 76.068-17.537 3.526-0.966 7.092-1.962 10.746-2.023 3.656-0.061 7.473 0.92 10.123 3.438 0.466 0.444 0.917 0.987 0.94 1.631 0.021 0.601-0.334 1.144-0.681 1.637-10.025 14.239-24.285 24.84-38.293 35.186-14.977 11.063-26.455 25.958-43.569 33.293" fill="#8bd6c8"/>
      </g>
      <g transform="translate(291.57 267.57)">
       <path d="m0 0-80.31 20.57c-3.233 0.828-5.456 3.793-5.343 7.129l1.311 39.956c0.153 4.542 4.469 7.778 8.872 6.65l80.311-20.57c3.233-0.828 5.455-3.793 5.343-7.129l-1.311-39.956c-0.153-4.542-4.47-7.778-8.873-6.65" fill="#aefff1"/>
      </g>
      <g transform="translate(286.35 273.63)">
       <path d="m0 0-69.203 17.725c-2.786 0.713-4.701 3.269-4.604 6.143l1.129 33.568c0.132 3.915 3.852 6.702 7.646 5.731l69.203-17.726c2.786-0.713 4.701-3.268 4.604-6.142l-1.129-33.569c-0.132-3.914-3.852-6.702-7.646-5.73" fill="#842f82"/>
      </g>
      <g clip-path="url(#clipPath5016)" opacity=".25">
       <g transform="translate(248.73 329.78)">
        <path d="m0 0c-12.5-9.232-24.553-19.067-36.091-29.477l-0.094-2.801c-0.097-2.874 1.818-5.43 4.604-6.143l11.507-2.947c15.992 11.407 31.984 22.814 47.976 34.222z" fill="#fff"/>
       </g>
       <g transform="translate(221.32 336.8)">
        <path d="m0 0c-3.794 0.972-7.514-1.816-7.646-5.73l-0.714-21.214c8.659 7.801 17.676 15.202 27.022 22.164z" fill="#fff"/>
       </g>
       <g transform="translate(295.13 312.93)">
        <path d="m0 0c0.097 2.874-1.818 5.429-4.604 6.143l-0.219 0.056c-15.6-11.508-31.199-23.016-46.799-34.524l21.195-5.428c9.988 7.315 19.997 14.6 30.027 21.857z" fill="#fff"/>
       </g>
       <g transform="translate(275.72 276.36)">
        <path d="m 0,0 10.629,-2.722 c 3.794,-0.972 7.514,1.816 7.645,5.73 l 0.338,10.035 C 12.43,8.665 6.225,4.319 0,0" fill="#fff"/>
       </g>
      </g>
      <g clip-path="url(#clipPath5044)" opacity=".5">
       <g transform="translate(200.26 150.66)">
        <path d="m0 0c3.492 12.767 9.389 24.78 17.022 35.6-3.801 1.393-7.585 2.796-11.326 4.246-1.192 0.461-1.938 1.7-2.141 2.965-3.993-13.601-3.839-28.465-3.555-42.811" fill="#ddd"/>
       </g>
      </g>
      <g transform="translate(374.86 340.6)">
       <path d="m0 0c0.256 0.515 0.538 1.051 1.024 1.357 1.224 0.774 2.781-0.348 3.599-1.542 3.294-4.808 2.565-11.212 1.57-16.955-2.088-12.055-4.764-24.008-8.018-35.802-0.85-3.082-1.749-6.178-3.219-9.017-1.182-2.281-3.619-4.655-5.961-3.599-1.615 0.728-2.175 2.717-2.399 4.474-0.97 7.59 0.801 15.239 2.683 22.656 3.207 12.642 4.916 26.717 10.721 38.428" fill="#f2ab88"/>
      </g>
      <g transform="translate(318.85 194.04)">
       <path d="m0 0c-13.759-11.206-27.517-22.411-41.275-33.616-5.106-4.157-10.21-8.315-15.315-12.472-12.965-10.558-25.933-21.121-38.462-32.194-9.945-8.79-19.991-17.237-30.12-25.815-20.478 26.413-42.15 51.337-64.649 76.05-0.282 17.7-4.756 35.319-12.952 51.01-11.939-1.131-23.705-4.106-33.824-10.542-10.119-6.437-18.414-16.034-22.229-27.403-3.332-9.932-0.474-25.54 1.81-35.763 2.285-10.223 6.598-19.883 11.431-29.176 12.306-23.663 29.144-44.098 49.216-61.66 20.073-17.564 44.086-30.997 70.126-36.765 5.913-1.309 12.016-2.226 18.016-1.409 10.704 1.459 18.863 9.35 26.043 17.42 16.595 18.653 33.214 37.336 48.111 57.371 4.252 5.718 8.36 11.542 12.641 17.238 13.319 17.718 28.31 34.177 44.709 49.088 2.049 1.864 4.203 3.826 5.072 6.456 1.144 3.468-0.221 7.251-1.953 10.466-5.667 10.52-14.967 18.229-26.396 21.716" fill="#ffc59a"/>
      </g>
      <g transform="translate(345.25 172.32)">
       <path d="m0 0c-5.666 10.52-14.967 18.229-26.396 21.716-1.849-1.507-3.7-3.014-5.549-4.521-1.034-2.254-1.812-4.629-2.249-7.16-2.083-12.045 1.108-24.906 8.579-34.58-31.909-30.394-55.368-69.882-88.603-98.822-7.798-6.79-16.33-13.16-26.267-16.018-13.163-3.785-27.237-1.012-40.549 2.21-10.496 2.54-21.002 5.407-31.286 8.841 17.758-13.378 38.014-23.496 59.682-28.296 5.912-1.309 12.015-2.226 18.016-1.409 10.704 1.459 18.863 9.35 26.043 17.42 16.595 18.653 33.214 37.336 48.11 57.371 4.252 5.718 8.361 11.542 12.642 17.238 13.318 17.718 28.309 34.177 44.709 49.088 2.049 1.863 4.203 3.826 5.071 6.456 1.145 3.468-0.221 7.251-1.953 10.466" fill="#f2ab88"/>
      </g>
      <g transform="translate(129 166.84)">
       <path d="m0 0c-0.409 17.414-4.861 34.722-12.926 50.161-3.3-0.312-6.585-0.772-9.828-1.401 4.465-11.689 7.966-23.716 9.06-36.138 4.716-4.038 9.281-8.253 13.694-12.622" fill="#f2ab88"/>
      </g>
      <g transform="translate(180.66 59.176)">
       <path d="m0 0c1.78 11.183 6.188 21.924 12.686 31.194-16.594 21.377-33.978 41.781-51.941 61.892 1.746-4.85 3.616-9.66 5.494-14.449 10.541-26.871 22.559-52.034 33.761-78.637" fill="#f2ab88"/>
      </g>
      <g transform="translate(309.64 184.78)">
       <path d="m0 0c9.642 15.135 9.447 34.34 14.852 51.451 1.043 3.303 2.324 6.582 4.373 9.374 3.17 4.319 7.932 7.158 12.691 9.617 9.831 5.08 20.861 13.899 31.783 12.121-0.06-2.814-0.121-10.406-0.181-13.22-0.17-7.897 0.246-17.091 0.235-24.989-4e-3 -3.255 0.01-6.608 1.248-9.618 1.237-3.01 4.019-5.628 7.273-5.647 2.398-0.015 4.579 1.334 6.491 2.78 5.634 4.264 10.249 9.762 15.923 13.972 5.673 4.211 13.032 7.102 19.789 5.038 0.585-0.179 1.21-0.436 1.492-0.979 0.43-0.826-0.15-1.799-0.706-2.547-11.207-15.076-22.415-30.15-33.623-45.225-1.556-2.092-3.119-4.192-4.954-6.044-11.38-11.474-26.854-19.105-41.642-25.624-1.895-0.835-3.806-1.676-5.832-2.104-6.658-1.405-13.553 1.907-18.453 6.627-6.662 6.419-10.726 15.766-10.759 25.017" fill="#ffc59a"/>
      </g>
      <g clip-path="url(#clipPath5084)" opacity=".72">
       <g transform="translate(362.41 263.38)">
        <path d="m0 0c-2.127-1.391-3.862-3.298-5.444-5.286-5.304-6.663-10.839-15.693-8.51-23.883 5.657-19.893 5.169-40.943 4.637-61.617 12.535 16.622 15.198 25.376 31.133 41.664-0.744-0.248-1.51-0.402-2.303-0.397-3.255 0.019-6.036 2.637-7.274 5.647s-1.252 6.363-1.248 9.618c0.011 7.898-0.405 17.092-0.235 24.989 0.06 2.814 0.121 10.406 0.182 13.221-0.098 0.015-0.197 0.024-0.295 0.039-0.811-0.235-1.622-0.47-2.432-0.705-2.843-0.825-5.734-1.67-8.211-3.29" fill="#f2ab88"/>
       </g>
      </g>
      <g transform="translate(369.19 332.52)">
       <path d="m0 0c0.183 0.412 0.404 0.863 0.826 1.023 0.355 0.136 0.755 0.022 1.101-0.133 3.201-1.439 3.76-5.698 3.62-9.205-0.713-17.722-7.531-34.559-14.348-50.933-1.259-3.023-3.232-6.548-6.506-6.55-3.758-1e-3 -5.612 4.601-5.865 8.351-0.642 9.53 3.1 16.74 6.821 25.091 4.803 10.776 9.567 21.57 14.351 32.356" fill="#ffc59a"/>
      </g>
      <g transform="translate(364 260.58)">
       <path d="m0 0c6.828 2.557 13.965 4.237 20.746 6.916 6.781 2.678 13.359 6.516 17.659 12.404 0.953 1.305 1.808 2.767 1.918 4.379 0.111 1.612-0.723 3.383-2.256 3.896-0.939 0.315-1.965 0.125-2.936-0.075-12.63-2.605-25.008-6.429-36.906-11.401-8.163-3.411-16.513-7.724-21.207-15.222-1.622-2.59-2.76-5.583-2.633-8.636 0.128-3.053 1.693-6.147 4.395-7.573 6.368-3.358 6.345 2.162 8.199 5.859 2.409 4.804 8.244 7.663 13.021 9.453" fill="#ffc59a"/>
      </g>
      <g transform="translate(363.66 277.27)">
       <path d="m0 0c-0.477-0.195-0.957-0.379-1.432-0.578-8.162-3.411-16.512-7.724-21.207-15.222-1.621-2.59-2.759-5.583-2.632-8.636 0.105-2.527 1.209-5.067 3.115-6.681 3.066 9.717 9.597 18.552 16.844 25.95 1.727 1.763 3.507 3.476 5.312 5.167" fill="#f2ab88"/>
      </g>
      <g transform="translate(325.73 245.39)">
       <path d="m0 0c0.892 4.984 2.888 9.697 4.979 14.309 5.741 12.665 12.315 24.954 19.664 36.759 0.911 1.463 2.674 3.113 4.065 2.096 0.44-0.323 0.682-0.845 0.878-1.354 2.481-6.468 0.315-13.69-1.856-20.268-4.31-13.063-8.621-26.125-12.931-39.188-1.559-4.722-5.436-11.328-11.516-7.998-4.754 2.604-4.071 11.241-3.283 15.644" fill="#ffc59a"/>
      </g>
      <g transform="translate(355.32 297.2)">
       <path d="m0 0c-0.196 0.509-0.437 1.032-0.878 1.354-0.338 0.247-0.697 0.334-1.061 0.308-3.361-21.536-13.673-42.7-14.266-64.483 0.591 1.127 1.064 2.295 1.418 3.365 4.31 13.063 8.621 26.125 12.932 39.188 2.17 6.579 4.336 13.8 1.855 20.268" fill="#f2ab88"/>
      </g>
      <g transform="translate(340.05 235.04)">
       <path d="m0 0c4.562-1.094 9.69 0.759 12.5 4.514 3.715 0.144 8.13 3.121 10.039 6.311" fill="none" stroke="#d3835f" stroke-linecap="round" stroke-linejoin="round" stroke-miterlimit="10"/>
      </g>
      <g transform="translate(362.2 246.65)">
       <path d="m0 0c1.634-2.227 4.598-2.204 6.616-0.559 2.019 1.646 3.214 4.526 3.882 7.445" fill="none" stroke="#d3835f" stroke-linecap="round" stroke-linejoin="round" stroke-miterlimit="10"/>
      </g>
      <g transform="translate(362.25 246.24)">
       <path d="m0 0c1.339 4.727 2.678 9.454 4.018 14.181" fill="none" stroke="#d3835f" stroke-linecap="round" stroke-linejoin="round" stroke-miterlimit="10"/>
      </g>
      <g transform="translate(351.58 239.61)">
       <path d="m0 0c2.143 4.883 3.923 9.925 5.323 15.07" fill="none" stroke="#d3835f" stroke-linecap="round" stroke-linejoin="round" stroke-miterlimit="10"/>
      </g>
      <g transform="translate(349.96 230.78)">
       <path d="m0 0c6.213-16.017 8.702-33.464 7.218-50.579" fill="none" stroke="#d3835f" stroke-linecap="round" stroke-linejoin="round" stroke-miterlimit="10"/>
      </g>
      <g transform="translate(415.98 279.25)">
       <path d="m0 0c0-20.778-8.296-37.623-18.53-37.623s-18.53 16.845-18.53 37.623 8.296 37.622 18.53 37.622 18.53-16.844 18.53-37.622z" fill="none" stroke="#aefff1" stroke-miterlimit="10"/>
      </g>
      <g transform="translate(407.68 279.25)">
       <path d="m0 0c0-11.469-4.579-20.766-10.228-20.766-5.648 0-10.227 9.297-10.227 20.766s4.579 20.766 10.227 20.766c5.649 0 10.228-9.297 10.228-20.766" fill="#aefff1"/>
      </g>
      <g transform="translate(426.12 279.25)">
       <path d="m0 0c0-32.144-12.834-58.203-28.666-58.203-15.831 0-28.665 26.059-28.665 58.203s12.834 58.202 28.665 58.202c15.832 0 28.666-26.058 28.666-58.202z" fill="none" stroke="#aefff1" stroke-miterlimit="10"/>
      </g>
      <g transform="translate(437.26 279.25)">
       <path d="m0 0c0-44.642-17.824-80.832-39.812-80.832-21.986 0-39.81 36.19-39.81 80.832s17.824 80.831 39.81 80.831c21.988 0 39.812-36.189 39.812-80.831z" fill="none" stroke="#aefff1" stroke-miterlimit="10"/>
      </g>
      <g transform="translate(463.04 279.25)">
       <path d="m0 0c0-73.542-29.363-133.16-65.585-133.16-36.221 0-65.584 59.619-65.584 133.16s29.363 133.16 65.584 133.16c36.222 0 65.585-59.619 65.585-133.16z" fill="none" stroke="#aefff1" stroke-miterlimit="10"/>
      </g>
      <g transform="translate(474.69 279.25)">
       <path d="m0 0c0-86.608-34.579-156.82-77.235-156.82s-77.236 70.209-77.236 156.82c0 86.607 34.58 156.82 77.236 156.82s77.235-70.21 77.235-156.82z" fill="none" stroke="#aefff1" stroke-miterlimit="10"/>
      </g>
      <g transform="translate(449.17 279.25)">
       <path d="m0 0c0-58-23.157-105.02-51.723-105.02-28.565 0-51.722 47.017-51.722 105.02 0 57.999 23.157 105.02 51.722 105.02" fill="none" stroke="#aefff1" stroke-miterlimit="10"/>
      </g>
      <g clip-path="url(#clipPath5168)" opacity=".45">
       <g transform="translate(397.45 212.13)">
        <path d="m0 0c-18.226 0-33.055 30.107-33.055 67.113h8.779c0-27.179 10.89-49.29 24.276-49.29z" fill="#aefff1"/>
       </g>
       <g transform="translate(430.51 279.24)">
        <path d="m0 0h-8.777c0 27.179-10.891 49.291-24.278 49.291v17.823c18.227 0 33.055-30.107 33.055-67.114" fill="#aefff1"/>
       </g>
       <g transform="translate(397.45 165.32)">
        <path d="m0 0c-2.966 0-5.942 0.475-8.849 1.41l1.375 17.602c2.453-0.789 4.967-1.19 7.474-1.19 26.1 0 47.334 43.114 47.334 96.106 0 10.15-0.774 20.141-2.302 29.695l8.35 5.502c1.811-11.335 2.729-23.177 2.729-35.197 0-62.82-25.171-113.93-56.111-113.93" fill="#aefff1"/>
       </g>
       <g transform="translate(342.24 258.84)">
        <path d="m0 0c-0.597 6.691-0.898 13.556-0.898 20.404 0 62.821 25.171 113.93 56.111 113.93 5.283 0 10.514-1.492 15.547-4.432l-2.427-17.128c-4.244 2.479-8.658 3.737-13.12 3.737-26.1 0-47.334-43.113-47.334-96.106 0-5.787 0.256-11.586 0.759-17.231z" fill="#aefff1"/>
       </g>
       <g transform="translate(397.3 107.14)">
        <path d="m0 0c-15.262 0-30.282 8.435-43.679 24.876-19.37 23.772-33.02 61.437-38.437 106.05-3.195 26.314-3.323 52.969-0.382 79.223l14.266-6.589c-2.432-21.699-2.324-43.745 0.321-65.525 4.481-36.914 15.775-68.074 31.8-87.741 16.025-19.668 34.863-25.486 53.044-16.389l3.501-28.84c-6.776-3.392-13.629-5.069-20.434-5.069" fill="#aefff1"/>
       </g>
       <g transform="translate(481.4 255.65)">
        <path d="m0 0-14.491 4.082c1.22 17.867 0.75 35.895-1.398 53.581-4.481 36.914-15.774 68.074-31.799 87.742-16.025 19.667-34.863 25.488-53.043 16.388l-3.502 28.841c45.364 22.698 91.368-33.757 102.55-125.86 2.594-21.362 3.161-43.155 1.684-64.773" fill="#aefff1"/>
       </g>
       <g transform="translate(389.29 307.02)">
        <path d="m0 0c0-4.973-1.985-9.004-4.435-9.004-2.449 0-4.434 4.031-4.434 9.004s1.985 9.004 4.434 9.004c2.45 0 4.435-4.031 4.435-9.004" fill="#aefff1"/>
       </g>
       <g transform="translate(423.67 242.96)">
        <path d="m0 0c0-4.973-1.985-9.004-4.435-9.004-2.449 0-4.434 4.031-4.434 9.004s1.985 9.004 4.434 9.004c2.45 0 4.435-4.031 4.435-9.004" fill="#aefff1"/>
       </g>
       <g transform="translate(430.55 339.53)">
        <path d="m0 0c0-4.973-1.985-9.004-4.435-9.004-2.449 0-4.434 4.031-4.434 9.004s1.985 9.004 4.434 9.004c2.45 0 4.435-4.031 4.435-9.004" fill="#aefff1"/>
       </g>
       <g transform="translate(350.16 396.13)">
        <path d="m0 0c0-4.973-1.985-9.004-4.435-9.004-2.449 0-4.434 4.031-4.434 9.004s1.985 9.004 4.434 9.004c2.45 0 4.435-4.031 4.435-9.004" fill="#aefff1"/>
       </g>
       <g transform="translate(366.51 204.19)">
        <path d="m0 0c0-4.973-1.985-9.004-4.435-9.004-2.449 0-4.434 4.031-4.434 9.004s1.985 9.004 4.434 9.004c2.45 0 4.435-4.031 4.435-9.004" fill="#aefff1"/>
       </g>
       <g transform="translate(458.04 174.23)">
        <path d="m0 0c0-4.973-1.985-9.004-4.435-9.004-2.449 0-4.434 4.031-4.434 9.004s1.985 9.004 4.434 9.004c2.45 0 4.435-4.031 4.435-9.004" fill="#aefff1"/>
       </g>
      </g>
      <g transform="translate(297.34 433.94)">
       <path d="m0 0c0-13.595-5.511-24.616-12.309-24.616-6.796 0-12.307 11.021-12.307 24.616s5.511 24.617 12.307 24.617c6.798 0 12.309-11.022 12.309-24.617z" fill="none" stroke="#aefff1" stroke-linecap="round" stroke-linejoin="round" stroke-miterlimit="10"/>
      </g>
      <g transform="translate(290.89 433.94)">
       <path d="m0 0c0-6.473-2.623-11.72-5.86-11.72s-5.86 5.247-5.86 11.72 2.623 11.721 5.86 11.721 5.86-5.248 5.86-11.721" fill="#aefff1"/>
      </g>
      <g clip-path="url(#clipPath5236)" opacity=".60001">
       <g transform="translate(299.59 433.94)">
        <path d="m0 0h-4.5c0 11.092-4.512 20.116-10.058 20.116v9c8.028 0 14.558-13.061 14.558-29.116" fill="#aefff1"/>
       </g>
      </g>
      <g clip-path="url(#clipPath5252)" opacity=".60001">
       <g transform="translate(285.03 404.82)">
        <path d="m0 0c-8.027 0-14.559 13.062-14.559 29.116h4.5c0-11.092 4.512-20.116 10.059-20.116z" fill="#aefff1"/>
       </g>
      </g>
      <g clip-path="url(#clipPath5268)" opacity=".60001">
       <g transform="translate(277.88 451.49)">
        <path d="m0 0c0-1.871-0.759-3.388-1.694-3.388-0.936 0-1.695 1.517-1.695 3.388 0 1.872 0.759 3.389 1.695 3.389 0.935 0 1.694-1.517 1.694-3.389" fill="#aefff1"/>
       </g>
      </g>
      <g clip-path="url(#clipPath5284)" opacity=".60001">
       <g transform="translate(296.8 420.71)">
        <path d="m0 0c0-1.872-0.759-3.389-1.694-3.389-0.936 0-1.695 1.517-1.695 3.389 0 1.871 0.759 3.388 1.695 3.388 0.935 0 1.694-1.517 1.694-3.388" fill="#aefff1"/>
       </g>
      </g>
      <g transform="translate(470.35 65.949)">
       <path d="m0 0c0-13.596-5.511-24.616-12.309-24.616-6.796 0-12.307 11.02-12.307 24.616 0 13.595 5.511 24.616 12.307 24.616 6.798 0 12.309-11.021 12.309-24.616z" fill="none" stroke="#aefff1" stroke-linecap="round" stroke-linejoin="round" stroke-miterlimit="10"/>
      </g>
      <g transform="translate(463.9 65.949)">
       <path d="m0 0c0-6.473-2.624-11.721-5.86-11.721-3.237 0-5.861 5.248-5.861 11.721s2.624 11.72 5.861 11.72c3.236 0 5.86-5.247 5.86-11.72" fill="#aefff1"/>
      </g>
      <g clip-path="url(#clipPath5308)" opacity=".60001">
       <g transform="translate(472.6 65.949)">
        <path d="m0 0h-4.5c0 11.092-4.512 20.116-10.059 20.116v9c8.028 0 14.559-13.061 14.559-29.116" fill="#aefff1"/>
       </g>
      </g>
      <g clip-path="url(#clipPath5324)" opacity=".60001">
       <g transform="translate(458.04 36.833)">
        <path d="m0 0c-8.027 0-14.558 13.062-14.558 29.116h4.5c0-11.092 4.512-20.116 10.058-20.116z" fill="#aefff1"/>
       </g>
      </g>
      <g clip-path="url(#clipPath5340)" opacity=".60001">
       <g transform="translate(450.9 83.499)">
        <path d="m0 0c0-1.871-0.759-3.389-1.694-3.389-0.936 0-1.695 1.518-1.695 3.389s0.759 3.389 1.695 3.389c0.935 0 1.694-1.518 1.694-3.389" fill="#aefff1"/>
       </g>
      </g>
      <g clip-path="url(#clipPath5356)" opacity=".60001">
       <g transform="translate(469.81 52.718)">
        <path d="m0 0c0-1.872-0.759-3.389-1.694-3.389-0.936 0-1.695 1.517-1.695 3.389 0 1.871 0.759 3.388 1.695 3.388 0.935 0 1.694-1.517 1.694-3.388" fill="#aefff1"/>
       </g>
      </g>
      <g transform="translate(285.03 433.94)">
       <path d="m0 0 112.42-154.7 60.592-213.3" fill="none" stroke="#aefff1" stroke-miterlimit="10"/>
      </g>
      <g transform="translate(355.14 94.39)">
       <path d="m0 0 5.583 0.675-5.583 0.676-0.691 0.691-0.676 5.583-0.675-5.583-0.692-0.691-5.582-0.676 5.582-0.675 0.692-0.692 0.675-5.582 0.676 5.582z" fill="#aefff1"/>
      </g>
      <g transform="translate(476.24 451.22)">
       <path d="m0 0 5.582 0.675-5.582 0.676-0.692 0.691-0.675 5.583-0.676-5.583-0.691-0.691-5.583-0.676 5.583-0.675 0.691-0.692 0.676-5.582 0.675 5.582z" fill="#aefff1"/>
      </g>
      <g transform="translate(405.7 471.77)">
       <path d="m0 0 5.582 0.675-5.582 0.676-0.692 0.691-0.675 5.583-0.676-5.583-0.691-0.691-5.583-0.676 5.583-0.675 0.691-0.692 0.676-5.582 0.675 5.582z" fill="#aefff1"/>
      </g>
      <g transform="translate(32.188 103.33)">
       <path d="m0 0 5.583 0.676-5.583 0.675-0.691 0.692-0.676 5.582-0.675-5.582-0.692-0.692-5.582-0.675 5.582-0.676 0.692-0.691 0.675-5.583 0.676 5.583z" fill="#aefff1"/>
      </g>
      <g transform="translate(380.9 27.411)">
       <path d="m0 0 5.583 0.676-5.583 0.675-0.691 0.692-0.676 5.582-0.675-5.582-0.692-0.692-5.582-0.675 5.582-0.676 0.692-0.691 0.675-5.583 0.676 5.583z" fill="#aefff1"/>
      </g>
      <g transform="translate(222.66 473.73)">
       <path d="m0 0 5.583 0.675-5.583 0.676-0.691 0.691-0.676 5.583-0.675-5.583-0.692-0.691-5.582-0.676 5.582-0.675 0.692-0.692 0.675-5.582 0.676 5.582z" fill="#aefff1"/>
      </g>
      <g transform="translate(319.98 464.82)">
       <path d="m0 0 5.583 0.675-5.583 0.676-0.691 0.691-0.676 5.583-0.675-5.583-0.692-0.691-5.582-0.676 5.582-0.675 0.692-0.692 0.675-5.582 0.676 5.582z" fill="#aefff1"/>
      </g>
      <g transform="translate(42.686 389.51)">
       <path d="m0 0 5.583 0.675-5.583 0.676-0.692 0.691-0.675 5.583-0.675-5.583-0.692-0.691-5.583-0.676 5.583-0.675 0.692-0.692 0.675-5.582 0.675 5.582z" fill="#aefff1"/>
      </g>
      <g transform="translate(109.53 444.27)">
       <path d="m0 0 5.583 0.675-5.583 0.676-0.692 0.691-0.675 5.583-0.675-5.583-0.692-0.691-5.583-0.676 5.583-0.675 0.692-0.692 0.675-5.582 0.675 5.582z" fill="#aefff1"/>
      </g>
      <g transform="translate(473.9 237.42)">
       <path d="m0 0c0-1.082-0.877-1.959-1.958-1.959-1.082 0-1.959 0.877-1.959 1.959 0 1.081 0.877 1.958 1.959 1.958 1.081 0 1.958-0.877 1.958-1.958" fill="#aefff1"/>
      </g>
      <g transform="translate(263.47 444.95)">
       <path d="m0 0c0-1.082-0.877-1.958-1.958-1.958-1.082 0-1.959 0.876-1.959 1.958s0.877 1.958 1.959 1.958c1.081 0 1.958-0.876 1.958-1.958" fill="#aefff1"/>
      </g>
      <g transform="translate(483.78 380.58)">
       <path d="m0 0c0-1.082-0.877-1.958-1.959-1.958-1.081 0-1.958 0.876-1.958 1.958s0.877 1.958 1.958 1.958c1.082 0 1.959-0.876 1.959-1.958" fill="#aefff1"/>
      </g>
      <g transform="translate(487.49 412.41)">
       <path d="m0 0c0-1.082-0.877-1.958-1.958-1.958-1.082 0-1.959 0.876-1.959 1.958s0.877 1.958 1.959 1.958c1.081 0 1.958-0.876 1.958-1.958" fill="#aefff1"/>
      </g>
      <g transform="translate(224.81 436.58)">
       <path d="m0 0c0-1.082-0.877-1.958-1.958-1.958-1.082 0-1.959 0.876-1.959 1.958s0.877 1.958 1.959 1.958c1.081 0 1.958-0.876 1.958-1.958" fill="#aefff1"/>
      </g>
      <g transform="translate(35.706 472.45)">
       <path d="m0 0c0-1.082-0.877-1.958-1.958-1.958-1.083 0-1.959 0.876-1.959 1.958s0.876 1.958 1.959 1.958c1.081 0 1.958-0.876 1.958-1.958" fill="#aefff1"/>
      </g>
      <g transform="translate(24.036 338.32)">
       <path d="m0 0c0-1.082-0.877-1.958-1.958-1.958-1.082 0-1.959 0.876-1.959 1.958s0.877 1.958 1.959 1.958c1.081 0 1.958-0.876 1.958-1.958" fill="#aefff1"/>
      </g>
      <g transform="translate(21.453 131.71)">
       <path d="m0 0c0-1.081-0.876-1.958-1.958-1.958s-1.959 0.877-1.959 1.958c0 1.082 0.877 1.959 1.959 1.959s1.958-0.877 1.958-1.959" fill="#aefff1"/>
      </g>
      <g transform="translate(301.55 368.37)">
       <path d="m0 0c0-1.082-0.876-1.958-1.958-1.958s-1.958 0.876-1.958 1.958 0.876 1.958 1.958 1.958 1.958-0.876 1.958-1.958" fill="#aefff1"/>
      </g>
      <g transform="translate(57.371 474.41)">
       <path d="m0 0c0-1.082-0.876-1.958-1.958-1.958s-1.959 0.876-1.959 1.958 0.877 1.958 1.959 1.958 1.958-0.876 1.958-1.958" fill="#aefff1"/>
      </g>
      <g transform="translate(416.17 21.426)">
       <path d="m0 0c0-1.082-0.877-1.959-1.959-1.959-1.081 0-1.958 0.877-1.958 1.959 0 1.081 0.877 1.958 1.958 1.958 1.082 0 1.959-0.877 1.959-1.958" fill="#aefff1"/>
      </g>
      <g transform="translate(480.25 135.63)">
       <path d="m0 0c0-1.081-0.877-1.958-1.958-1.958-1.082 0-1.959 0.877-1.959 1.958 0 1.082 0.877 1.959 1.959 1.959 1.081 0 1.958-0.877 1.958-1.959" fill="#aefff1"/>
      </g>
      <g transform="translate(414.96 95.065)">
       <path d="m0 0c0-1.081-0.877-1.958-1.959-1.958-1.081 0-1.958 0.877-1.958 1.958 0 1.082 0.877 1.959 1.958 1.959 1.082 0 1.959-0.877 1.959-1.959" fill="#aefff1"/>
      </g>
      <g transform="translate(399.34 71.515)">
       <path d="m0 0c0-1.081-0.877-1.958-1.959-1.958-1.081 0-1.958 0.877-1.958 1.958 0 1.082 0.877 1.958 1.958 1.958 1.082 0 1.959-0.876 1.959-1.958" fill="#aefff1"/>
      </g>
      <g transform="translate(358.86 63.99)">
       <path d="m0 0c0-1.081-0.877-1.958-1.958-1.958-1.082 0-1.959 0.877-1.959 1.958 0 1.082 0.877 1.959 1.959 1.959 1.081 0 1.958-0.877 1.958-1.959" fill="#aefff1"/>
      </g>
      <g transform="translate(467.39 19.466)">
       <path d="m0 0c0-1.082-0.877-1.958-1.958-1.958-1.082 0-1.959 0.876-1.959 1.958s0.877 1.959 1.959 1.959c1.081 0 1.958-0.877 1.958-1.959" fill="#aefff1"/>
      </g>
      <g transform="translate(155.73 469.03)">
       <path d="m0 0c0-1.082-0.877-1.958-1.958-1.958-1.082 0-1.959 0.876-1.959 1.958s0.877 1.958 1.959 1.958c1.081 0 1.958-0.876 1.958-1.958" fill="#aefff1"/>
      </g>
      <g transform="translate(148.12 418.44)">
       <path d="m0 0c0-1.082-0.877-1.958-1.958-1.958-1.082 0-1.959 0.876-1.959 1.958s0.877 1.958 1.959 1.958c1.081 0 1.958-0.876 1.958-1.958" fill="#aefff1"/>
      </g>
      <g transform="translate(107.36 387.13)">
       <path d="m0 0c0-1.082-0.877-1.958-1.958-1.958-1.082 0-1.959 0.876-1.959 1.958s0.877 1.958 1.959 1.958c1.081 0 1.958-0.876 1.958-1.958" fill="#aefff1"/>
      </g>
      <g transform="translate(32.779 307.02)">
       <path d="m0 0c0-1.082-0.876-1.958-1.958-1.958s-1.959 0.876-1.959 1.958 0.877 1.958 1.959 1.958 1.958-0.876 1.958-1.958" fill="#aefff1"/>
      </g>
      <g transform="translate(85.221 343.43)">
       <path d="m0 0c0-1.082-0.876-1.958-1.958-1.958s-1.959 0.876-1.959 1.958 0.877 1.958 1.959 1.958 1.958-0.876 1.958-1.958" fill="#aefff1"/>
      </g>
      <g transform="translate(73.27 431.98)">
       <path d="m0 0c0-1.082-0.876-1.958-1.958-1.958s-1.959 0.876-1.959 1.958 0.877 1.958 1.959 1.958 1.958-0.876 1.958-1.958" fill="#aefff1"/>
      </g>
      <g transform="translate(265.43 476.36)">
       <path d="m0 0c0-1.082-0.877-1.958-1.959-1.958-1.081 0-1.958 0.876-1.958 1.958s0.877 1.958 1.958 1.958c1.082 0 1.959-0.876 1.959-1.958" fill="#aefff1"/>
      </g>
      <g transform="translate(183.84 454.8)">
       <path d="m0 0c0-1.082-0.877-1.958-1.958-1.958-1.082 0-1.959 0.876-1.959 1.958s0.877 1.958 1.959 1.958c1.081 0 1.958-0.876 1.958-1.958" fill="#aefff1"/>
      </g>
      <g transform="translate(23.411 423.5)">
       <path d="m0 0c0-1.082-0.876-1.958-1.958-1.958s-1.959 0.876-1.959 1.958 0.877 1.958 1.959 1.958 1.958-0.876 1.958-1.958" fill="#aefff1"/>
      </g>
      <g transform="translate(352.97 472.45)">
       <path d="m0 0c0-1.082-0.877-1.958-1.958-1.958-1.082 0-1.959 0.876-1.959 1.958s0.877 1.958 1.959 1.958c1.081 0 1.958-0.876 1.958-1.958" fill="#aefff1"/>
      </g>
      <g transform="translate(327.13 423.5)">
       <path d="m0 0c0-1.082-0.876-1.958-1.958-1.958-1.081 0-1.958 0.876-1.958 1.958s0.877 1.958 1.958 1.958c1.082 0 1.958-0.876 1.958-1.958" fill="#aefff1"/>
      </g>
      <g transform="translate(36.327 41.333)">
       <path d="m0 0c0-1.082-0.877-1.959-1.958-1.959-1.082 0-1.959 0.877-1.959 1.959 0 1.081 0.877 1.958 1.959 1.958 1.081 0 1.958-0.877 1.958-1.958" fill="#aefff1"/>
      </g>
      <g transform="translate(55.413 73.473)">
       <path d="m0 0c0-1.081-0.877-1.958-1.958-1.958-1.083 0-1.959 0.877-1.959 1.958 0 1.082 0.876 1.959 1.959 1.959 1.081 0 1.958-0.877 1.958-1.959" fill="#aefff1"/>
      </g>
      <g transform="translate(441.3 474.41)">
       <path d="m0 0c0-1.082-0.877-1.958-1.959-1.958-1.081 0-1.958 0.876-1.958 1.958s0.877 1.958 1.958 1.958c1.082 0 1.959-0.876 1.959-1.958" fill="#aefff1"/>
      </g>
      <g transform="translate(482.21 182.23)">
       <path d="m0 0c0-1.081-0.876-1.958-1.958-1.958s-1.958 0.877-1.958 1.958c0 1.082 0.876 1.959 1.958 1.959s1.958-0.877 1.958-1.959" fill="#aefff1"/>
      </g>
     </g>
    </g>
   </g>
  </g>
 </g>
</svg>
